<svg xmlns="http://www.w3.org/2000/svg" width="375" viewBox="0 0 375 375" height="375" version="1.0"><defs><clipPath id="a"><path d="M 38 119.667969 L 113 119.667969 L 113 255.417969 L 38 255.417969 Z M 38 119.667969"/></clipPath><clipPath id="b"><path d="M 112.019531 119.667969 L 187 119.667969 L 187 255.417969 L 112.019531 255.417969 Z M 112.019531 119.667969"/></clipPath><clipPath id="c"><path d="M 188 119.667969 L 263 119.667969 L 263 255.417969 L 188 255.417969 Z M 188 119.667969"/></clipPath><clipPath id="d"><path d="M 262.019531 119.667969 L 337 119.667969 L 337 255.417969 L 262.019531 255.417969 Z M 262.019531 119.667969"/></clipPath></defs><path fill="#FFF" d="M-37.5 -37.5H412.5V412.5H-37.5z"/><path fill="#FFF" d="M-37.5 -37.5H412.5V412.5H-37.5z"/><path fill="#FFF" d="M-37.5 -37.5H412.5V412.5H-37.5z"/><g clip-path="url(#a)"><path fill="#008037" d="M 112.480469 207.183594 C 112.480469 178.253906 58.984375 180.144531 58.984375 162.679688 C 58.984375 154.222656 67.09375 150.09375 76.507812 150.09375 C 92.332031 150.09375 95.148438 160.230469 102.316406 160.230469 C 107.390625 160.230469 109.835938 157.042969 109.835938 153.472656 C 109.835938 145.171875 97.214844 138.890625 85.109375 136.714844 L 85.109375 128.707031 C 85.109375 123.710938 81.054688 119.65625 76.039062 119.65625 C 71.023438 119.65625 66.964844 123.710938 66.964844 128.707031 L 66.964844 137 C 53.765625 139.992188 42.417969 149.117188 42.417969 163.992188 C 42.417969 191.78125 95.90625 190.65625 95.90625 210.175781 C 95.90625 216.9375 88.5625 223.699219 76.507812 223.699219 C 58.421875 223.699219 52.398438 211.496094 45.050781 211.496094 C 41.472656 211.496094 38.273438 214.496094 38.273438 219.023438 C 38.273438 226.210938 50.359375 234.859375 66.972656 237.277344 L 66.964844 237.332031 L 66.964844 246.371094 C 66.964844 251.371094 71.027344 255.425781 76.042969 255.425781 C 81.054688 255.425781 85.117188 251.371094 85.117188 246.371094 L 85.117188 237.332031 C 85.117188 237.226562 85.066406 237.144531 85.058594 237.050781 C 100.007812 234.265625 112.480469 224.550781 112.480469 207.183594 Z M 112.480469 207.183594"/></g><g clip-path="url(#b)"><path fill="#008037" d="M 187 207.183594 C 187 178.253906 133.503906 180.144531 133.503906 162.679688 C 133.503906 154.222656 141.617188 150.09375 151.027344 150.09375 C 166.851562 150.09375 169.671875 160.230469 176.835938 160.230469 C 181.914062 160.230469 184.355469 157.042969 184.355469 153.472656 C 184.355469 145.171875 171.734375 138.890625 159.632812 136.714844 L 159.632812 128.707031 C 159.632812 123.710938 155.578125 119.65625 150.5625 119.65625 C 145.542969 119.65625 141.484375 123.710938 141.484375 128.707031 L 141.484375 137 C 128.289062 139.992188 116.9375 149.117188 116.9375 163.992188 C 116.9375 191.78125 170.425781 190.65625 170.425781 210.175781 C 170.425781 216.9375 163.085938 223.699219 151.027344 223.699219 C 132.945312 223.699219 126.917969 211.496094 119.574219 211.496094 C 115.996094 211.496094 112.796875 214.496094 112.796875 219.023438 C 112.796875 226.210938 124.878906 234.859375 141.496094 237.277344 L 141.484375 237.332031 L 141.484375 246.371094 C 141.484375 251.371094 145.550781 255.425781 150.566406 255.425781 C 155.578125 255.425781 159.640625 251.371094 159.640625 246.371094 L 159.640625 237.332031 C 159.640625 237.226562 159.585938 237.144531 159.578125 237.050781 C 174.53125 234.265625 187 224.550781 187 207.183594 Z M 187 207.183594"/></g><g clip-path="url(#c)"><path fill="#008037" d="M 262.480469 207.183594 C 262.480469 178.253906 208.984375 180.144531 208.984375 162.679688 C 208.984375 154.222656 217.09375 150.09375 226.507812 150.09375 C 242.332031 150.09375 245.148438 160.230469 252.316406 160.230469 C 257.390625 160.230469 259.835938 157.042969 259.835938 153.472656 C 259.835938 145.171875 247.214844 138.890625 235.109375 136.714844 L 235.109375 128.707031 C 235.109375 123.710938 231.054688 119.65625 226.039062 119.65625 C 221.023438 119.65625 216.964844 123.710938 216.964844 128.707031 L 216.964844 137 C 203.765625 139.992188 192.417969 149.117188 192.417969 163.992188 C 192.417969 191.78125 245.90625 190.65625 245.90625 210.175781 C 245.90625 216.9375 238.5625 223.699219 226.507812 223.699219 C 208.421875 223.699219 202.398438 211.496094 195.050781 211.496094 C 191.472656 211.496094 188.273438 214.496094 188.273438 219.023438 C 188.273438 226.210938 200.359375 234.859375 216.972656 237.277344 L 216.964844 237.332031 L 216.964844 246.371094 C 216.964844 251.371094 221.027344 255.425781 226.042969 255.425781 C 231.054688 255.425781 235.117188 251.371094 235.117188 246.371094 L 235.117188 237.332031 C 235.117188 237.226562 235.066406 237.144531 235.058594 237.050781 C 250.007812 234.265625 262.480469 224.550781 262.480469 207.183594 Z M 262.480469 207.183594"/></g><g clip-path="url(#d)"><path fill="#008037" d="M 337 207.183594 C 337 178.253906 283.503906 180.144531 283.503906 162.679688 C 283.503906 154.222656 291.617188 150.09375 301.027344 150.09375 C 316.851562 150.09375 319.671875 160.230469 326.835938 160.230469 C 331.914062 160.230469 334.355469 157.042969 334.355469 153.472656 C 334.355469 145.171875 321.734375 138.890625 309.632812 136.714844 L 309.632812 128.707031 C 309.632812 123.710938 305.578125 119.65625 300.5625 119.65625 C 295.542969 119.65625 291.484375 123.710938 291.484375 128.707031 L 291.484375 137 C 278.289062 139.992188 266.9375 149.117188 266.9375 163.992188 C 266.9375 191.78125 320.425781 190.65625 320.425781 210.175781 C 320.425781 216.9375 313.085938 223.699219 301.027344 223.699219 C 282.945312 223.699219 276.917969 211.496094 269.574219 211.496094 C 265.996094 211.496094 262.796875 214.496094 262.796875 219.023438 C 262.796875 226.210938 274.878906 234.859375 291.496094 237.277344 L 291.484375 237.332031 L 291.484375 246.371094 C 291.484375 251.371094 295.550781 255.425781 300.566406 255.425781 C 305.578125 255.425781 309.640625 251.371094 309.640625 246.371094 L 309.640625 237.332031 C 309.640625 237.226562 309.585938 237.144531 309.578125 237.050781 C 324.53125 234.265625 337 224.550781 337 207.183594 Z M 337 207.183594"/></g></svg>