<svg xmlns="http://www.w3.org/2000/svg" width="375" viewBox="0 0 375 375" height="375" version="1.0"><defs><clipPath id="a"><path d="M 150 119.667969 L 225 119.667969 L 225 255.417969 L 150 255.417969 Z M 150 119.667969"/></clipPath></defs><path fill="#FFF" d="M-37.5 -37.5H412.5V412.5H-37.5z"/><path fill="#FFF" d="M-37.5 -37.5H412.5V412.5H-37.5z"/><path fill="#FFF" d="M-37.5 -37.5H412.5V412.5H-37.5z"/><g clip-path="url(#a)"><path fill="#008037" d="M 224.738281 207.183594 C 224.738281 178.253906 171.242188 180.144531 171.242188 162.679688 C 171.242188 154.222656 179.355469 150.09375 188.765625 150.09375 C 204.589844 150.09375 207.410156 160.230469 214.578125 160.230469 C 219.652344 160.230469 222.097656 157.042969 222.097656 153.472656 C 222.097656 145.171875 209.472656 138.890625 197.371094 136.714844 L 197.371094 128.707031 C 197.371094 123.710938 193.316406 119.65625 188.300781 119.65625 C 183.28125 119.65625 179.222656 123.710938 179.222656 128.707031 L 179.222656 137 C 166.027344 139.992188 154.675781 149.117188 154.675781 163.992188 C 154.675781 191.78125 208.164062 190.65625 208.164062 210.175781 C 208.164062 216.9375 200.824219 223.699219 188.765625 223.699219 C 170.683594 223.699219 164.660156 211.496094 157.3125 211.496094 C 153.734375 211.496094 150.535156 214.496094 150.535156 219.023438 C 150.535156 226.210938 162.621094 234.859375 179.234375 237.277344 L 179.222656 237.332031 L 179.222656 246.371094 C 179.222656 251.371094 183.289062 255.425781 188.304688 255.425781 C 193.316406 255.425781 197.378906 251.371094 197.378906 246.371094 L 197.378906 237.332031 C 197.378906 237.226562 197.324219 237.144531 197.316406 237.050781 C 212.269531 234.265625 224.738281 224.550781 224.738281 207.183594 Z M 224.738281 207.183594"/></g></svg>