<svg xmlns="http://www.w3.org/2000/svg" width="375" viewBox="0 0 375 375" height="375" version="1.0"><defs><clipPath id="a"><path d="M 113 119.667969 L 188 119.667969 L 188 255.417969 L 113 255.417969 Z M 113 119.667969"/></clipPath><clipPath id="b"><path d="M 187.019531 119.667969 L 262 119.667969 L 262 255.417969 L 187.019531 255.417969 Z M 187.019531 119.667969"/></clipPath></defs><path fill="#FFF" d="M-37.5 -37.5H412.5V412.5H-37.5z"/><path fill="#FFF" d="M-37.5 -37.5H412.5V412.5H-37.5z"/><path fill="#FFF" d="M-37.5 -37.5H412.5V412.5H-37.5z"/><g clip-path="url(#a)"><path fill="#008037" d="M 187.480469 207.183594 C 187.480469 178.253906 133.984375 180.144531 133.984375 162.679688 C 133.984375 154.222656 142.09375 150.09375 151.507812 150.09375 C 167.332031 150.09375 170.148438 160.230469 177.316406 160.230469 C 182.390625 160.230469 184.835938 157.042969 184.835938 153.472656 C 184.835938 145.171875 172.214844 138.890625 160.109375 136.714844 L 160.109375 128.707031 C 160.109375 123.710938 156.054688 119.65625 151.039062 119.65625 C 146.023438 119.65625 141.964844 123.710938 141.964844 128.707031 L 141.964844 137 C 128.765625 139.992188 117.417969 149.117188 117.417969 163.992188 C 117.417969 191.78125 170.90625 190.65625 170.90625 210.175781 C 170.90625 216.9375 163.5625 223.699219 151.507812 223.699219 C 133.421875 223.699219 127.398438 211.496094 120.050781 211.496094 C 116.472656 211.496094 113.273438 214.496094 113.273438 219.023438 C 113.273438 226.210938 125.359375 234.859375 141.972656 237.277344 L 141.964844 237.332031 L 141.964844 246.371094 C 141.964844 251.371094 146.027344 255.425781 151.042969 255.425781 C 156.054688 255.425781 160.117188 251.371094 160.117188 246.371094 L 160.117188 237.332031 C 160.117188 237.226562 160.066406 237.144531 160.058594 237.050781 C 175.007812 234.265625 187.480469 224.550781 187.480469 207.183594 Z M 187.480469 207.183594"/></g><g clip-path="url(#b)"><path fill="#008037" d="M 262 207.183594 C 262 178.253906 208.503906 180.144531 208.503906 162.679688 C 208.503906 154.222656 216.617188 150.09375 226.027344 150.09375 C 241.851562 150.09375 244.671875 160.230469 251.835938 160.230469 C 256.914062 160.230469 259.355469 157.042969 259.355469 153.472656 C 259.355469 145.171875 246.734375 138.890625 234.632812 136.714844 L 234.632812 128.707031 C 234.632812 123.710938 230.578125 119.65625 225.5625 119.65625 C 220.542969 119.65625 216.484375 123.710938 216.484375 128.707031 L 216.484375 137 C 203.289062 139.992188 191.9375 149.117188 191.9375 163.992188 C 191.9375 191.78125 245.425781 190.65625 245.425781 210.175781 C 245.425781 216.9375 238.085938 223.699219 226.027344 223.699219 C 207.945312 223.699219 201.917969 211.496094 194.574219 211.496094 C 190.996094 211.496094 187.796875 214.496094 187.796875 219.023438 C 187.796875 226.210938 199.878906 234.859375 216.496094 237.277344 L 216.484375 237.332031 L 216.484375 246.371094 C 216.484375 251.371094 220.550781 255.425781 225.566406 255.425781 C 230.578125 255.425781 234.640625 251.371094 234.640625 246.371094 L 234.640625 237.332031 C 234.640625 237.226562 234.585938 237.144531 234.578125 237.050781 C 249.53125 234.265625 262 224.550781 262 207.183594 Z M 262 207.183594"/></g></svg>