<svg xmlns="http://www.w3.org/2000/svg" width="375" viewBox="0 0 375 375" height="375" version="1.0"><defs><clipPath id="a"><path d="M 75 119.667969 L 150 119.667969 L 150 255.417969 L 75 255.417969 Z M 75 119.667969"/></clipPath><clipPath id="b"><path d="M 150 119.667969 L 225 119.667969 L 225 255.417969 L 150 255.417969 Z M 150 119.667969"/></clipPath><clipPath id="c"><path d="M 225 119.667969 L 300 119.667969 L 300 255.417969 L 225 255.417969 Z M 225 119.667969"/></clipPath></defs><path fill="#FFF" d="M-37.5 -37.5H412.5V412.5H-37.5z"/><path fill="#FFF" d="M-37.5 -37.5H412.5V412.5H-37.5z"/><path fill="#FFF" d="M-37.5 -37.5H412.5V412.5H-37.5z"/><g clip-path="url(#a)"><path fill="#008037" d="M 149.738281 207.183594 C 149.738281 178.253906 96.242188 180.144531 96.242188 162.679688 C 96.242188 154.222656 104.355469 150.09375 113.765625 150.09375 C 129.589844 150.09375 132.410156 160.230469 139.578125 160.230469 C 144.652344 160.230469 147.097656 157.042969 147.097656 153.472656 C 147.097656 145.171875 134.472656 138.890625 122.371094 136.714844 L 122.371094 128.707031 C 122.371094 123.710938 118.316406 119.65625 113.300781 119.65625 C 108.28125 119.65625 104.222656 123.710938 104.222656 128.707031 L 104.222656 137 C 91.027344 139.992188 79.675781 149.117188 79.675781 163.992188 C 79.675781 191.78125 133.164062 190.65625 133.164062 210.175781 C 133.164062 216.9375 125.824219 223.699219 113.765625 223.699219 C 95.683594 223.699219 89.660156 211.496094 82.3125 211.496094 C 78.734375 211.496094 75.535156 214.496094 75.535156 219.023438 C 75.535156 226.210938 87.621094 234.859375 104.234375 237.277344 L 104.222656 237.332031 L 104.222656 246.371094 C 104.222656 251.371094 108.289062 255.425781 113.304688 255.425781 C 118.316406 255.425781 122.378906 251.371094 122.378906 246.371094 L 122.378906 237.332031 C 122.378906 237.226562 122.324219 237.144531 122.316406 237.050781 C 137.269531 234.265625 149.738281 224.550781 149.738281 207.183594 Z M 149.738281 207.183594"/></g><g clip-path="url(#b)"><path fill="#008037" d="M 224.261719 207.183594 C 224.261719 178.253906 170.765625 180.144531 170.765625 162.679688 C 170.765625 154.222656 178.878906 150.09375 188.289062 150.09375 C 204.113281 150.09375 206.929688 160.230469 214.097656 160.230469 C 219.175781 160.230469 221.617188 157.042969 221.617188 153.472656 C 221.617188 145.171875 208.996094 138.890625 196.890625 136.714844 L 196.890625 128.707031 C 196.890625 123.710938 192.839844 119.65625 187.824219 119.65625 C 182.804688 119.65625 178.746094 123.710938 178.746094 128.707031 L 178.746094 137 C 165.550781 139.992188 154.199219 149.117188 154.199219 163.992188 C 154.199219 191.78125 207.6875 190.65625 207.6875 210.175781 C 207.6875 216.9375 200.347656 223.699219 188.289062 223.699219 C 170.203125 223.699219 164.179688 211.496094 156.835938 211.496094 C 153.257812 211.496094 150.058594 214.496094 150.058594 219.023438 C 150.058594 226.210938 162.140625 234.859375 178.757812 237.277344 L 178.746094 237.332031 L 178.746094 246.371094 C 178.746094 251.371094 182.8125 255.425781 187.828125 255.425781 C 192.839844 255.425781 196.898438 251.371094 196.898438 246.371094 L 196.898438 237.332031 C 196.898438 237.226562 196.847656 237.144531 196.839844 237.050781 C 211.789062 234.265625 224.261719 224.550781 224.261719 207.183594 Z M 224.261719 207.183594"/></g><g clip-path="url(#c)"><path fill="#008037" d="M 299.738281 207.183594 C 299.738281 178.253906 246.242188 180.144531 246.242188 162.679688 C 246.242188 154.222656 254.355469 150.09375 263.765625 150.09375 C 279.589844 150.09375 282.410156 160.230469 289.578125 160.230469 C 294.652344 160.230469 297.097656 157.042969 297.097656 153.472656 C 297.097656 145.171875 284.472656 138.890625 272.371094 136.714844 L 272.371094 128.707031 C 272.371094 123.710938 268.316406 119.65625 263.300781 119.65625 C 258.28125 119.65625 254.222656 123.710938 254.222656 128.707031 L 254.222656 137 C 241.027344 139.992188 229.675781 149.117188 229.675781 163.992188 C 229.675781 191.78125 283.164062 190.65625 283.164062 210.175781 C 283.164062 216.9375 275.824219 223.699219 263.765625 223.699219 C 245.683594 223.699219 239.660156 211.496094 232.3125 211.496094 C 228.734375 211.496094 225.535156 214.496094 225.535156 219.023438 C 225.535156 226.210938 237.621094 234.859375 254.234375 237.277344 L 254.222656 237.332031 L 254.222656 246.371094 C 254.222656 251.371094 258.289062 255.425781 263.304688 255.425781 C 268.316406 255.425781 272.378906 251.371094 272.378906 246.371094 L 272.378906 237.332031 C 272.378906 237.226562 272.324219 237.144531 272.316406 237.050781 C 287.269531 234.265625 299.738281 224.550781 299.738281 207.183594 Z M 299.738281 207.183594"/></g></svg>